<svg width="120" height="120" viewBox="0 0 120 120" fill="none" xmlns="http://www.w3.org/2000/svg">
<g clip-path="url(#clip0_42_345)">
<rect width="120" height="120" rx="30" fill="url(#paint0_linear_42_345)"/>
<circle cx="59.5" cy="59.5" r="39.5" fill="white"/>
<path d="M43.995 81.68C43.0383 81.68 42.245 81.3767 41.615 80.77C41.0083 80.1867 40.495 79.3583 40.075 78.285C39.865 77.725 39.6667 76.8033 39.48 75.52C39.2933 74.2133 39.1183 72.6967 38.955 70.97C38.7917 69.2433 38.64 67.4467 38.5 65.58C38.3833 63.69 38.2783 61.8467 38.185 60.05C38.0917 58.2533 38.0217 56.6433 37.975 55.22C37.9283 53.7733 37.905 52.665 37.905 51.895C37.905 49.165 38.08 46.855 38.43 44.965C38.8033 43.0517 39.4683 41.5933 40.425 40.59C41.3817 39.5633 42.77 39.05 44.59 39.05C45.85 39.05 47.0983 39.5633 48.335 40.59C49.5717 41.5933 51.0183 43.1917 52.675 45.385C54.3317 47.5783 56.385 50.4367 58.835 53.96C62.1017 58.7667 64.7267 62.3367 66.71 64.67C68.6933 66.98 70.1167 68.135 70.98 68.135C71.4 68.135 71.7383 68.03 71.995 67.82C72.275 67.61 72.485 67.19 72.625 66.56C72.7883 65.9067 72.8933 64.9267 72.94 63.62C72.9867 63.06 73.01 62.2083 73.01 61.065C73.01 59.9217 72.9983 58.6383 72.975 57.215C72.975 55.7683 72.9633 54.2867 72.94 52.77C72.9167 51.2533 72.905 49.8183 72.905 48.465C72.905 47.1117 72.905 45.9567 72.905 45C72.9283 44.0433 72.9633 43.4017 73.01 43.075C73.29 41.675 73.745 40.7067 74.375 40.17C75.005 39.6333 75.88 39.365 77 39.365C77.84 39.365 78.54 39.5167 79.1 39.82C79.6833 40.1 80.15 40.5317 80.5 41.115C80.8733 41.675 81.1417 42.41 81.305 43.32C81.4917 44.2067 81.6083 45.2567 81.655 46.47C81.6783 47.17 81.7017 48.185 81.725 49.515C81.7483 50.845 81.7717 52.3617 81.795 54.065C81.8183 55.745 81.8183 57.495 81.795 59.315C81.795 61.135 81.7717 62.9083 81.725 64.635C81.7017 66.3383 81.655 67.89 81.585 69.29C81.515 70.69 81.41 71.81 81.27 72.65C80.99 74.4467 80.5583 75.9517 79.975 77.165C79.415 78.355 78.6567 79.2533 77.7 79.86C76.7667 80.4433 75.565 80.735 74.095 80.735C72.765 80.735 71.3067 80.07 69.72 78.74C68.1333 77.3867 66.4183 75.5317 64.575 73.175C62.755 70.795 60.8067 68.1117 58.73 65.125C57.4 63.2117 56.1633 61.45 55.02 59.84C53.8767 58.2067 52.8617 56.795 51.975 55.605C51.1117 54.3917 50.3767 53.4583 49.77 52.805C49.1633 52.1283 48.7083 51.79 48.405 51.79C47.8683 51.79 47.495 52.105 47.285 52.735C47.075 53.3417 46.97 54.5783 46.97 56.445C46.97 57.5183 46.9933 58.7083 47.04 60.015C47.0867 61.2983 47.145 62.6283 47.215 64.005C47.285 65.3817 47.3667 66.77 47.46 68.17C47.5533 69.5467 47.6233 70.8883 47.67 72.195C47.7167 73.4783 47.74 74.6683 47.74 75.765C47.7633 76.8617 47.74 77.8067 47.67 78.6C47.4133 79.79 46.9817 80.595 46.375 81.015C45.7683 81.4583 44.975 81.68 43.995 81.68Z" fill="url(#paint1_linear_42_345)"/>
</g>
<defs>
<linearGradient id="paint0_linear_42_345" x1="60" y1="0" x2="60" y2="120" gradientUnits="userSpaceOnUse">
<stop stop-color="#C5E1D2"/>
<stop offset="1" stop-color="#5DAC6E"/>
</linearGradient>
<linearGradient id="paint1_linear_42_345" x1="60" y1="35" x2="60" y2="84" gradientUnits="userSpaceOnUse">
<stop stop-color="#C5E1D2"/>
<stop offset="1" stop-color="#5DAC6E"/>
</linearGradient>
<clipPath id="clip0_42_345">
<rect width="120" height="120" fill="white"/>
</clipPath>
</defs>
</svg>
